<svg xmlns="http://www.w3.org/2000/svg" width="24" height="24" viewBox="0 0 24 24" fill="none" stroke="currentColor" stroke-width="2" stroke-linecap="round" stroke-linejoin="round"><path d="m8 2 1.88 1.88"/><path d="M14.12 3.88 16 2"/><path d="M9 7.13v-1a3.003 3.003 0 0 1 6 0v1"/><path d="M12 20c-3.66 0-6-2.31-6-5.5V7h12v7.5c0 3.19-2.34 5.5-6 5.5Z"/><path d="M12 9v4"/><path d="M6 13H2"/><path d="M22 13h-4"/><path d="m17.25 19.14 2.78 2.02"/><path d="m6.75 19.14-2.78 2.02"/><path d="m19.87 9.1 2.3-1.47"/><path d="m4.13 9.1-2.3-1.47"/></svg>
